<svg preserveAspectRatio="xMidYMid meet" data-bbox="0 0 299.555 121.875" xmlns="http://www.w3.org/2000/svg" viewBox="0 0 303 122" height="122" width="303" data-type="ugc" role="presentation" aria-hidden="true" aria-labelledby="svgcid-hiklye-66kmiz"><title id="svgcid-hiklye-66kmiz"></title>
    <g>
        <path fill="url(#svgcid-oo5p9v-bmmny7)" d="M45.535 39.667C50.667 35.033 57.245 33 63.325 33v12.5c-3.426 0-6.886 1.163-9.414 3.445-2.4 2.167-4.411 5.74-4.411 11.574 0 5.446 2.048 8.84 4.483 10.954 2.613 2.27 5.921 3.268 8.403 3.268h.03l17.659.174-.123 12.5-17.6-.174c-5.333-.009-11.576-1.997-16.566-6.33C40.608 76.414 37 69.573 37 60.519c0-9.04 3.273-16.103 8.535-20.852Z" clip-rule="evenodd" fill-rule="evenodd"></path>
        <path fill="#1F1D2B" d="M107.434 46.752c-6.942 0-11.466 3.354-14.04 8.502V32.4H79.978V87h13.416V68.67c0-7.644 3.12-11.076 8.502-11.076 4.68 0 6.786 2.808 6.786 7.956V87h13.416V63.288c0-10.218-4.446-16.536-14.664-16.536Z"></path>
        <path fill="#1F1D2B" d="M153.439 47.376c-6.318 0-9.516 3.042-11.076 8.58V48h-13.026v39h13.416V71.4c0-7.878 2.73-10.998 9.204-10.998h4.758V47.376h-3.276Z"></path>
        <path fill="#1F1D2B" d="M181.624 88.248c16.536 0 22.386-10.296 22.386-20.748 0-10.452-5.85-20.748-22.386-20.748S159.316 57.048 159.316 67.5c0 10.53 5.772 20.748 22.308 20.748ZM172.732 67.5c0-7.8 2.496-10.296 8.892-10.296 6.396 0 8.892 2.496 8.892 10.296 0 7.8-2.496 10.296-8.892 10.296-6.396 0-8.892-2.496-8.892-10.296Z"></path>
        <path fill="#1F1D2B" d="M237.079 46.752c-6.942 0-11.466 3.354-14.04 8.502V48h-13.416v39h13.416V68.67c0-7.644 3.12-11.076 8.502-11.076 4.68 0 6.786 2.808 6.786 7.956V87h13.416V63.288c0-10.218-4.446-16.536-14.664-16.536Z"></path>
        <path fill="#1F1D2B" d="M278.885 79.278c-4.992 0-8.034-2.106-8.814-8.346h29.25c.156-.858.234-2.028.234-3.276 0-10.842-5.07-20.904-20.982-20.904-14.976 0-21.528 9.36-21.528 20.67 0 10.686 5.616 20.826 21.528 20.826 14.196 0 19.5-6.318 20.826-13.026h-13.026c-1.092 2.34-3.51 4.056-7.488 4.056Zm-.156-23.712c5.226 0 7.644 2.652 8.112 7.566h-16.614c.858-5.616 3.666-7.566 8.502-7.566Z"></path>
        <path fill="#4589FF" d="M64.517 0v15.292h-7V0h7Z" clip-rule="evenodd" fill-rule="evenodd"></path>
        <path fill="#EDCB53" d="m20.348 15.375 10.238 10.224-4.953 4.947L15.395 20.32l4.953-4.946Z" clip-rule="evenodd" fill-rule="evenodd"></path>
        <path fill="#A46DFF" d="M16.584 64.438H0v-7h16.584v7Z" clip-rule="evenodd" fill-rule="evenodd"></path>
        <path fill="#23A147" d="M32.255 94.609 20.348 106.5l-4.953-4.947 11.907-11.891 4.953 4.947Z" clip-rule="evenodd" fill-rule="evenodd"></path>
        <path fill="#F94D55" d="M64.517 105.312v16.563h-7v-16.563h7Z" clip-rule="evenodd" fill-rule="evenodd"></path>
        <defs fill="none">
            <linearGradient gradientUnits="userSpaceOnUse" y2="74.501" x2="75.999" y1="44.5" x1="40.5" id="svgcid-oo5p9v-bmmny7">
                <stop stop-color="#1F1D2B" offset=".393"></stop>
                <stop stop-opacity="0" stop-color="#1F1D2B" offset="1"></stop>
            </linearGradient>
        </defs>
    </g>
</svg>